<svg height="652.052239" viewBox="0 0 3162.31343284 652.05223881" width="3162.313433" xmlns="http://www.w3.org/2000/svg"><g fill="#000" transform="matrix(146.05988131 0 0 146.05988131 -39.196625 -39.050567)" xmlns="http://www.w3.org/2000/svg"><path d="m3.726 1.855c-.286.272-.684.382-1.065.437-.34.05-.695.071-.999.203-.318.139-.518.369-.502.725.01.214.125.423.287.584.045.036.091.07.139.101-.003-.006-.006-.013-.011-.019-.193-.265-.343-1.024.667-1.189.203-.033.406-.067.608-.113.178-.041.496-.141.531-.16.029-.017-.189.228-.857.42-1.061.305-.735 1.186-.411 1.287.124.03.254.045.387.045.926 0 1.677-.75 1.677-1.676 0-.333-.097-.643-.264-.903-.045.098-.108.182-.187.258z"/><path d="m.824 2.5c0 .184.03.359.084.525.02-.182.082-.354.198-.5.21-.267.536-.392.875-.459.338-.066.698-.074 1.045-.158.192-.046.387-.121.542-.244.129-.104.189-.262.055-.409-.049-.044-.101-.086-.155-.124.098.201.022.5-.773.578-.204.021-.407.04-.608.068-.059.008-.132.019-.207.032 0 0 .066-.082.532-.188.958-.216.779-.633.495-.748-.13-.032-.267-.05-.407-.05-.926.001-1.676.751-1.676 1.677z"/></g><g fill="#000"><path d="m8.18 5.8c3.96 0 7.28 2.94 7.28 7.2s-3.32 7.2-7.28 7.2-7.28-2.94-7.28-7.2 3.32-7.2 7.28-7.2zm0 11.38c2.26 0 3.94-1.76 3.94-4.18s-1.68-4.18-3.94-4.18-3.92 1.76-3.92 4.18 1.66 4.18 3.92 4.18zm21.92-8.92c-.9 0-.88.82-.88 1.02v.32h2.16v2.6h-2.16v7.8h-3.18v-7.8h-1.42-2.42-.82v7.8h-3.18v-7.8h-1.42v-2.6h1.42v-.32c0-3.22 2.42-3.62 3.68-3.62 1 0 1.98.22 2.72.7l-1.06 2.18c-.58-.22-.8-.28-1.28-.28-.9 0-.88.82-.88 1.02v.32h2.16 1.88.62v-.32c0-3.22 2.42-3.62 3.68-3.62 1 0 1.98.22 2.72.7l-1.06 2.18c-.58-.22-.8-.28-1.28-.28zm9.7 1.16c2.38 0 5.12 1.78 5.12 5.36 0 3.72-2.74 5.42-5.12 5.42-1.6 0-2.54-.88-2.68-1.24v1.04h-3.16v-10.4-3.74h3.16v4.7c.14-.22 1.08-1.14 2.68-1.14zm-.46 8c1.36 0 2.52-.92 2.52-2.64 0-1.66-1.16-2.58-2.52-2.58-1.3 0-2.36.9-2.36 2.58 0 1.74 1.06 2.64 2.36 2.64zm12.46-8c2.36 0 5.66 1.78 5 6.48h-7.26c.36 1.08 1.3 1.64 2.56 1.64 1.28 0 1.68-.28 2.4-.58l1.74 1.68c-.92.9-2.16 1.56-4.26 1.56-2.58 0-5.66-1.78-5.66-5.36 0-3.64 3.12-5.42 5.48-5.42zm0 2.7c-.9 0-1.82.52-2.22 1.56h4.42c-.32-1.04-1.3-1.56-2.2-1.56zm14.28-2.52h3.16v10.4h-3.16v-1.04c-.14.36-1.08 1.24-2.68 1.24-2.38 0-5.12-1.7-5.12-5.42 0-3.58 2.74-5.36 5.12-5.36 1.6 0 2.54.92 2.68 1.14zm-2.22 7.82c1.3 0 2.36-.9 2.36-2.64 0-1.68-1.06-2.58-2.36-2.58-1.36 0-2.52.92-2.52 2.58 0 1.72 1.16 2.64 2.52 2.64zm12.48-.06c.56 0 .96-.08 1.4-.2v2.62c-.44.2-1.16.34-2.22.34-1.74 0-3.2-.58-3.2-3.78v-4.14h-1.46v-2.6h1.46v-2.44h3.16v2.44h2.22v2.6h-2.22v4.14c0 .46.12 1.02.86 1.02zm17.06 2.64-2.86-4.58h-1.72v4.58h-3.22v-14h4.98c3.14 0 5.22 1.9 5.22 4.82 0 1.86-.88 3.26-2.36 3.98l3.36 5.2zm-4.58-11.04v3.72h1.56c1.3 0 2.2-.46 2.2-1.86 0-1.38-.9-1.86-2.2-1.86zm14.76.46c2.36 0 5.48 1.78 5.48 5.42 0 3.66-3.12 5.36-5.48 5.36s-5.48-1.7-5.48-5.36c0-3.64 3.12-5.42 5.48-5.42zm0 2.78c-1.2 0-2.42.92-2.42 2.64 0 1.66 1.22 2.58 2.42 2.58s2.44-.92 2.44-2.58c0-1.72-1.24-2.64-2.44-2.64zm14.68-2.6h3.16v10.4h-3.16v-1.04c-.14.36-1.08 1.24-2.68 1.24-2.38 0-5.12-1.7-5.12-5.42 0-3.58 2.74-5.36 5.12-5.36 1.6 0 2.54.92 2.68 1.14zm-2.22 7.82c1.3 0 2.36-.9 2.36-2.64 0-1.68-1.06-2.58-2.36-2.58-1.36 0-2.52.92-2.52 2.58 0 1.72 1.16 2.64 2.52 2.64zm14.9-11.56h3.16v5.08 9.06h-3.16v-1.04c-.14.36-1.08 1.24-2.68 1.24-2.38 0-5.12-1.7-5.12-5.42 0-3.58 2.74-5.36 5.12-5.36 1.6 0 2.54.92 2.68 1.14zm-2.22 11.56c1.3 0 2.36-.9 2.36-2.64 0-1.68-1.06-2.58-2.36-2.58-1.36 0-2.52.92-2.52 2.58 0 1.72 1.16 2.64 2.52 2.64z" transform="matrix(17.64824362 0 0 17.64824362 714.527023 5.614657)"/><path d="m4.52 5.86v2.66h-3.16v-2.66zm0 3.74v11.32c0 2.14-1.32 3.2-3.28 3.2-1.16 0-1.78-.24-2.34-.52v-3.06c.52.24.92.34 1.52.34.88 0 .94-.68.94-1.02v-10.26zm7.2-.18c2.36 0 5.48 1.78 5.48 5.42 0 3.66-3.12 5.36-5.48 5.36s-5.48-1.7-5.48-5.36c0-3.64 3.12-5.42 5.48-5.42zm0 2.78c-1.2 0-2.42.92-2.42 2.64 0 1.66 1.22 2.58 2.42 2.58s2.44-.92 2.44-2.58c0-1.72-1.24-2.64-2.44-2.64zm11 7.96c-1.94 0-3.92-1.3-3.92-4.6v-5.96h3.16v5.74c0 1.58.54 2.08 1.54 2.08 1.42 0 2.24-1.38 2.44-1.98v-5.84h3.16v10.4h-3.16v-1.8c-.2.5-1.26 1.96-3.22 1.96zm15.1-10.72c.28 0 .56 0 .82.06v3.02c-.24-.06-.52-.06-.72-.06-1.92 0-3.46 1.38-3.62 3.3v4.24h-3.16v-10.4h3.16v2.54c.48-1.56 1.68-2.7 3.52-2.7zm8.82 0c1.94 0 3.92 1.3 3.92 4.6v5.96h-3.16v-5.74c0-1.58-.54-2.08-1.54-2.08-1.42 0-2.24 1.38-2.44 1.98v5.84h-3.16v-10.4h3.16v1.8c.2-.5 1.26-1.96 3.22-1.96zm11-.02c2.36 0 5.66 1.78 5 6.48h-7.26c.36 1.08 1.3 1.64 2.56 1.64 1.28 0 1.68-.28 2.4-.58l1.74 1.68c-.92.9-2.16 1.56-4.26 1.56-2.58 0-5.66-1.78-5.66-5.36 0-3.64 3.12-5.42 5.48-5.42zm0 2.7c-.9 0-1.82.52-2.22 1.56h4.42c-.32-1.04-1.3-1.56-2.2-1.56zm15.24-2.56h3.14l-6.36 14.24h-3.16l1.92-4.16-4.5-10.08h3.14l2.92 6.68zm13.82-3.7v2.66h-3.16v-2.66zm0 3.74v10.4h-3.16v-10.4zm6.98 3.28c-.28-.72-.7-.96-1.16-.96-.42 0-.84.24-.84.64 0 .38.24.6.7.76l1.32.46c1.48.54 2.98 1.08 2.98 3.16 0 2.1-2.1 3.3-4.26 3.3-1.94 0-3.76-1.14-4.2-2.96l2.48-.78c.26.58.72 1.24 1.72 1.24.68 0 1.12-.44 1.12-.84 0-.2-.16-.46-.66-.66l-1.22-.44c-2.08-.76-3.06-1.82-3.06-3.3 0-1.94 1.8-3.08 3.78-3.08 2.02 0 3.36 1.1 3.96 2.76zm15.68 4.48c.56 0 .96-.08 1.4-.2v2.62c-.44.2-1.16.34-2.22.34-1.74 0-3.2-.58-3.2-3.78v-4.14h-1.46v-2.6h1.46v-2.44h3.16v2.44h2.22v2.6h-2.22v4.14c0 .46.12 1.02.86 1.02zm9.46-7.92c1.94 0 3.92 1.3 3.92 4.6v5.96h-3.16v-5.74c0-1.58-.54-2.08-1.54-2.08-1.42 0-2.24 1.38-2.44 1.98v5.84h-3.16v-14.14h3.16v5.54c.2-.5 1.26-1.96 3.22-1.96zm11-.02c2.36 0 5.66 1.78 5 6.48h-7.26c.36 1.08 1.3 1.64 2.56 1.64 1.28 0 1.68-.28 2.4-.58l1.74 1.68c-.92.9-2.16 1.56-4.26 1.56-2.58 0-5.66-1.78-5.66-5.36 0-3.64 3.12-5.42 5.48-5.42zm0 2.7c-.9 0-1.82.52-2.22 1.56h4.42c-.32-1.04-1.3-1.56-2.2-1.56zm20.28-6.26h3.16v5.08 9.06h-3.16v-1.04c-.14.36-1.08 1.24-2.68 1.24-2.38 0-5.12-1.7-5.12-5.42 0-3.58 2.74-5.36 5.12-5.36 1.6 0 2.54.92 2.68 1.14zm-2.22 11.56c1.3 0 2.36-.9 2.36-2.64 0-1.68-1.06-2.58-2.36-2.58-1.36 0-2.52.92-2.52 2.58 0 1.72 1.16 2.64 2.52 2.64zm12.58-8c2.36 0 5.66 1.78 5 6.48h-7.26c.36 1.08 1.3 1.64 2.56 1.64 1.28 0 1.68-.28 2.4-.58l1.74 1.68c-.92.9-2.16 1.56-4.26 1.56-2.58 0-5.66-1.78-5.66-5.36 0-3.64 3.12-5.42 5.48-5.42zm0 2.7c-.9 0-1.82.52-2.22 1.56h4.42c-.32-1.04-1.3-1.56-2.2-1.56zm11.74.76c-.28-.72-.7-.96-1.16-.96-.42 0-.84.24-.84.64 0 .38.24.6.7.76l1.32.46c1.48.54 2.98 1.08 2.98 3.16 0 2.1-2.1 3.3-4.26 3.3-1.94 0-3.76-1.14-4.2-2.96l2.48-.78c.26.58.72 1.24 1.72 1.24.68 0 1.12-.44 1.12-.84 0-.2-.16-.46-.66-.66l-1.22-.44c-2.08-.76-3.06-1.82-3.06-3.3 0-1.94 1.8-3.08 3.78-3.08 2.02 0 3.36 1.1 3.96 2.76zm9.68 4.48c.56 0 .96-.08 1.4-.2v2.62c-.44.2-1.16.34-2.22.34-1.74 0-3.2-.58-3.2-3.78v-4.14h-1.46v-2.6h1.46v-2.44h3.16v2.44h2.22v2.6h-2.22v4.14c0 .46.12 1.02.86 1.02zm6.24-11.5v2.66h-3.16v-2.66zm0 3.74v10.4h-3.16v-10.4zm8.42-.16c1.94 0 3.92 1.3 3.92 4.6v5.96h-3.16v-5.74c0-1.58-.54-2.08-1.54-2.08-1.42 0-2.24 1.38-2.44 1.98v5.84h-3.16v-10.4h3.16v1.8c.2-.5 1.26-1.96 3.22-1.96zm13.32.16h3.16v10.4h-3.16v-1.04c-.14.36-1.08 1.24-2.68 1.24-2.38 0-5.12-1.7-5.12-5.42 0-3.58 2.74-5.36 5.12-5.36 1.6 0 2.54.92 2.68 1.14zm-2.22 7.82c1.3 0 2.36-.9 2.36-2.64 0-1.68-1.06-2.58-2.36-2.58-1.36 0-2.52.92-2.52 2.58 0 1.72 1.16 2.64 2.52 2.64zm12.48-.06c.56 0 .96-.08 1.4-.2v2.62c-.44.2-1.16.34-2.22.34-1.74 0-3.2-.58-3.2-3.78v-4.14h-1.46v-2.6h1.46v-2.44h3.16v2.44h2.22v2.6h-2.22v4.14c0 .46.12 1.02.86 1.02zm6.24-11.5v2.66h-3.16v-2.66zm0 3.74v10.4h-3.16v-10.4zm7.2-.18c2.36 0 5.48 1.78 5.48 5.42 0 3.66-3.12 5.36-5.48 5.36s-5.48-1.7-5.48-5.36c0-3.64 3.12-5.42 5.48-5.42zm0 2.78c-1.2 0-2.42.92-2.42 2.64 0 1.66 1.22 2.58 2.42 2.58s2.44-.92 2.44-2.58c0-1.72-1.24-2.64-2.44-2.64zm13.58-2.76c1.94 0 3.92 1.3 3.92 4.6v5.96h-3.16v-5.74c0-1.58-.54-2.08-1.54-2.08-1.42 0-2.24 1.38-2.44 1.98v5.84h-3.16v-10.4h3.16v1.8c.2-.5 1.26-1.96 3.22-1.96z" transform="matrix(5.98189836 0 0 5.98189836 736.990536 411.308025)"/></g></svg>