<svg height="652.052239" viewBox="0 0 652.05223881 652.05223881" width="652.052239" xmlns="http://www.w3.org/2000/svg"><rect width="100%" height="100%" fill="black" /><g fill="#D96944" transform="matrix(146.05988131 0 0 146.05988131 -39.196625 -39.050567)" xmlns="http://www.w3.org/2000/svg"><path d="m3.726 1.855c-.286.272-.684.382-1.065.437-.34.05-.695.071-.999.203-.318.139-.518.369-.502.725.01.214.125.423.287.584.045.036.091.07.139.101-.003-.006-.006-.013-.011-.019-.193-.265-.343-1.024.667-1.189.203-.033.406-.067.608-.113.178-.041.496-.141.531-.16.029-.017-.189.228-.857.42-1.061.305-.735 1.186-.411 1.287.124.03.254.045.387.045.926 0 1.677-.75 1.677-1.676 0-.333-.097-.643-.264-.903-.045.098-.108.182-.187.258z"/><path d="m.824 2.5c0 .184.03.359.084.525.02-.182.082-.354.198-.5.21-.267.536-.392.875-.459.338-.066.698-.074 1.045-.158.192-.046.387-.121.542-.244.129-.104.189-.262.055-.409-.049-.044-.101-.086-.155-.124.098.201.022.5-.773.578-.204.021-.407.04-.608.068-.059.008-.132.019-.207.032 0 0 .066-.082.532-.188.958-.216.779-.633.495-.748-.13-.032-.267-.05-.407-.05-.926.001-1.676.751-1.676 1.677z"/></g></svg>